<svg width="33" height="25" viewBox="0 0 33 25" fill="none" xmlns="http://www.w3.org/2000/svg">
<path d="M16.9374 12.8212C17.7156 12.1476 18.3397 11.3145 18.7674 10.3785C19.1952 9.44244 19.4166 8.42532 19.4166 7.39616C19.4166 5.46229 18.6484 3.60762 17.2809 2.24017C15.9135 0.872719 14.0588 0.104492 12.1249 0.104492C10.191 0.104492 8.33639 0.872719 6.96893 2.24017C5.60148 3.60762 4.83325 5.46229 4.83325 7.39616C4.83324 8.42532 5.05463 9.44244 5.48239 10.3785C5.91016 11.3145 6.53429 12.1476 7.31242 12.8212C5.27096 13.7456 3.53893 15.2384 2.32343 17.1211C1.10793 19.0038 0.460398 21.1968 0.458252 23.4378C0.458252 23.8246 0.611897 24.1955 0.885388 24.469C1.15888 24.7425 1.52981 24.8962 1.91659 24.8962C2.30336 24.8962 2.67429 24.7425 2.94778 24.469C3.22127 24.1955 3.37492 23.8246 3.37492 23.4378C3.37492 21.1172 4.29679 18.8916 5.93774 17.2506C7.57868 15.6097 9.80428 14.6878 12.1249 14.6878C14.4456 14.6878 16.6712 15.6097 18.3121 17.2506C19.953 18.8916 20.8749 21.1172 20.8749 23.4378C20.8749 23.8246 21.0286 24.1955 21.3021 24.469C21.5755 24.7425 21.9465 24.8962 22.3333 24.8962C22.72 24.8962 23.091 24.7425 23.3645 24.469C23.6379 24.1955 23.7916 23.8246 23.7916 23.4378C23.7894 21.1968 23.1419 19.0038 21.9264 17.1211C20.7109 15.2384 18.9789 13.7456 16.9374 12.8212ZM12.1249 11.7712C11.2596 11.7712 10.4138 11.5146 9.6943 11.0338C8.97483 10.5531 8.41408 9.86983 8.08295 9.0704C7.75181 8.27097 7.66517 7.39131 7.83398 6.54264C8.00279 5.69397 8.41947 4.91442 9.03133 4.30257C9.64318 3.69071 10.4227 3.27403 11.2714 3.10522C12.1201 2.93641 12.9997 3.02305 13.7992 3.35419C14.5986 3.68532 15.2819 4.24607 15.7626 4.96554C16.2433 5.685 16.4999 6.53087 16.4999 7.39616C16.4999 8.55648 16.039 9.66928 15.2185 10.4898C14.398 11.3102 13.2852 11.7712 12.1249 11.7712ZM26.3291 12.2378C27.2624 11.1868 27.872 9.88853 28.0846 8.49915C28.2972 7.10978 28.1038 5.68856 27.5275 4.40658C26.9512 3.12459 26.0167 2.03649 24.8364 1.27323C23.6562 0.509982 22.2805 0.104117 20.8749 0.104492C20.4881 0.104492 20.1172 0.258138 19.8437 0.531628C19.5702 0.805119 19.4166 1.17605 19.4166 1.56283C19.4166 1.9496 19.5702 2.32053 19.8437 2.59402C20.1172 2.86751 20.4881 3.02116 20.8749 3.02116C22.0352 3.02116 23.148 3.4821 23.9685 4.30257C24.789 5.12304 25.2499 6.23584 25.2499 7.39616C25.2479 8.16213 25.0447 8.91414 24.6608 9.57698C24.277 10.2398 23.7258 10.7903 23.0624 11.1732C22.8462 11.298 22.6656 11.4761 22.538 11.6906C22.4103 11.9051 22.3398 12.1487 22.3333 12.3982C22.3272 12.6458 22.3842 12.8909 22.499 13.1103C22.6138 13.3297 22.7826 13.5163 22.9895 13.6524L23.5583 14.0316L23.7478 14.1337C25.5057 14.9674 26.9887 16.2861 28.0222 17.9345C29.0557 19.5829 29.5966 21.4923 29.5812 23.4378C29.5812 23.8246 29.7348 24.1955 30.0083 24.469C30.2818 24.7425 30.6527 24.8962 31.0395 24.8962C31.4263 24.8962 31.7972 24.7425 32.0707 24.469C32.3442 24.1955 32.4978 23.8246 32.4978 23.4378C32.5098 21.1999 31.9492 18.9961 30.8696 17.0358C29.7899 15.0756 28.2269 13.4239 26.3291 12.2378Z" fill="#F2F2F2"/>
</svg>
