<svg width="151" height="50" viewBox="0 0 151 50" fill="none" xmlns="http://www.w3.org/2000/svg">
<path d="M78.4471 10.5483V44.0304H72.5304V30.7736C70.8839 32.8875 68.4513 34.1196 65.1052 34.1196C58.9548 34.1196 53.9092 28.8403 53.9092 22.01C53.9092 15.1798 58.9548 9.90039 65.1052 9.90039C68.4513 9.90039 70.8839 11.1432 72.5304 13.2465V10.5377H78.4471V10.5483ZM72.5304 22.01C72.5304 18.1541 69.8216 15.5409 66.1994 15.5409C62.5771 15.5409 59.8259 18.1541 59.8259 22.01C59.8259 25.866 62.5346 28.4791 66.1994 28.4791C69.8641 28.4791 72.5304 25.866 72.5304 22.01Z" fill="#F2F2F2"/>
<path d="M106.065 10.5477V33.4817H100.149V30.9111C98.7677 32.9718 96.3882 34.119 93.3183 34.119C88.4532 34.119 84.6504 30.7198 84.6504 24.6225V10.5371H90.5671V23.8789C90.5671 27.0019 92.4473 28.606 95.1029 28.606C97.9922 28.606 100.149 26.9064 100.149 22.923V10.5371H106.065V10.5477Z" fill="#F2F2F2"/>
<path d="M111.568 4.17453C111.568 2.19875 113.214 0.509766 115.19 0.509766C117.166 0.509766 118.855 2.20937 118.855 4.17453C118.855 6.13969 117.208 7.79683 115.19 7.79683C113.172 7.79683 111.568 6.15031 111.568 4.17453ZM112.258 10.548H118.175V33.482H112.258V10.548Z" fill="#F2F2F2"/>
<path d="M124.368 0H130.285V33.4821H124.368V0Z" fill="#F2F2F2"/>
<path d="M144.838 16.2415V25.7806C144.838 28.2556 146.622 28.2981 150.021 28.1175V33.4818C141.715 34.3954 138.921 31.9735 138.921 25.7806V16.2415H134.927V10.5585H138.921V5.92715L144.838 4.14258V10.5585H150.021V16.2415H144.838Z" fill="#F2F2F2"/>
<path d="M146.93 37.8369H87.7313C86.0241 37.8369 84.6401 39.2209 84.6401 40.9281V40.9387C84.6401 42.6458 86.0241 44.0298 87.7313 44.0298H146.93C148.638 44.0298 150.021 42.6458 150.021 40.9387V40.9281C150.021 39.2209 148.638 37.8369 146.93 37.8369Z" fill="#00E467"/>
<path d="M25.3983 49.4686C25.0903 49.4686 24.8035 49.3517 24.5804 49.1287L18.0795 42.6277H4.88633C2.47503 42.6277 0.520508 40.6732 0.520508 38.2619V20.5436C0.520508 19.9063 1.04101 19.3857 1.67835 19.3857H19.4073C23.3482 19.3857 26.5562 22.5937 26.5562 26.5346V48.3107C26.5562 48.64 26.4287 48.9375 26.195 49.1499C25.9826 49.3518 25.6851 49.4686 25.3983 49.4686V49.4686Z" fill="#212121"/>
<path d="M19.4073 19.8957C23.072 19.8957 26.0463 22.87 26.0463 26.5347V48.3108C26.0463 48.6932 25.7276 48.9588 25.3983 48.9588C25.239 48.9588 25.0797 48.8951 24.9522 48.7676L18.3025 42.118H4.89695C2.77245 42.118 1.04098 40.3971 1.04098 38.262V20.5437C1.04098 20.1932 1.3278 19.9063 1.67834 19.9063H19.4073V19.8957ZM19.4073 18.876H1.67834C0.754181 18.876 0 19.6302 0 20.5543V38.2726C0 40.9707 2.1882 43.1589 4.88631 43.1589H17.867L24.2192 49.5112C24.5379 49.8298 24.9522 49.9998 25.3983 49.9998C26.3225 49.9998 27.0767 49.2456 27.0767 48.3214V26.5454C27.0767 22.3176 23.635 18.876 19.4073 18.876V18.876Z" fill="#00E467"/>
<path d="M32.6215 42.2352C32.3135 42.2352 32.0266 42.1183 31.8036 41.8953L25.3026 35.3943H12.1095C9.6982 35.3943 7.74365 33.4398 7.74365 31.0285V13.3102C7.74365 12.6729 8.26415 12.1523 8.9015 12.1523H26.6304C30.5714 12.1523 33.7793 15.3603 33.7793 19.3012V41.0773C33.7793 41.4066 33.6519 41.7041 33.4182 41.9165C33.2057 42.1184 32.9083 42.2352 32.6215 42.2352V42.2352Z" fill="#212121"/>
<path d="M26.6411 12.673C30.3059 12.673 33.2802 15.6473 33.2802 19.3121V41.0882C33.2802 41.4706 32.9615 41.7361 32.6322 41.7361C32.4729 41.7361 32.3135 41.6724 32.1861 41.5449L25.5364 34.8953H12.1308C10.0063 34.8953 8.27487 33.1745 8.27487 31.0393V13.321C8.27487 12.9705 8.56168 12.6837 8.91222 12.6837H26.6411V12.673ZM26.6411 11.6533H8.91222C7.98807 11.6533 7.23389 12.4075 7.23389 13.3316V31.0499C7.23389 33.748 9.42209 35.9363 12.1202 35.9363H25.1009L31.4531 42.2885C31.7718 42.6072 32.1861 42.7772 32.6322 42.7772C33.5564 42.7772 34.3106 42.0229 34.3106 41.0988V19.3227C34.3106 15.095 30.8689 11.6533 26.6411 11.6533V11.6533Z" fill="#00E467"/>
<path d="M39.8446 35.0223C39.5366 35.0223 39.2498 34.9055 39.0267 34.6824L32.5257 28.1814H19.3326C16.9213 28.1814 14.9668 26.2268 14.9668 23.8155V6.09727C14.9668 5.45992 15.4873 4.93945 16.1246 4.93945H33.8536C37.7945 4.93945 41.0025 8.14742 41.0025 12.0884V33.8644C41.0025 34.1937 40.875 34.4911 40.6413 34.7036C40.4289 34.9054 40.1314 35.0223 39.8446 35.0223V35.0223Z" fill="#212121"/>
<path d="M33.8643 5.44947C37.529 5.44947 40.5033 8.42376 40.5033 12.0885V33.8646C40.5033 34.247 40.1847 34.5125 39.8554 34.5125C39.696 34.5125 39.5367 34.4488 39.4092 34.3213L32.7596 27.6717H19.354C17.2295 27.6717 15.498 25.9508 15.498 23.8157V6.09742C15.498 5.74688 15.7848 5.4601 16.1354 5.4601H33.8643V5.44947ZM33.8643 4.42969H16.1354C15.2112 4.42969 14.457 5.1839 14.457 6.10806V23.8263C14.457 26.5244 16.6453 28.7127 19.3434 28.7127H32.324L38.6763 35.0649C38.9949 35.3836 39.4092 35.5536 39.8554 35.5536C40.7795 35.5536 41.5337 34.7994 41.5337 33.8752V12.0991C41.5337 7.8714 38.092 4.42969 33.8643 4.42969V4.42969Z" fill="#00E467"/>
</svg>
