<svg width="31" height="31" viewBox="0 0 31 31" fill="none" xmlns="http://www.w3.org/2000/svg">
<path d="M29.0915 11.9274L26.3353 11.0087L27.6332 8.41283C27.7647 8.14112 27.8088 7.83528 27.7591 7.5375C27.7095 7.23972 27.5687 6.96468 27.3561 6.75033L24.2498 3.64408C24.0344 3.42837 23.7567 3.28563 23.4558 3.23593C23.155 3.18623 22.8462 3.23207 22.5728 3.367L19.9769 4.66491L19.0582 1.90866C18.9611 1.62136 18.777 1.37145 18.5313 1.19371C18.2856 1.01597 17.9906 0.919249 17.6873 0.916997H13.3123C13.0066 0.916208 12.7084 1.01152 12.4598 1.18947C12.2112 1.36743 12.0248 1.61901 11.9269 1.90866L11.0082 4.66491L8.41234 3.367C8.14063 3.23543 7.83479 3.19142 7.53701 3.24105C7.23923 3.29068 6.96419 3.4315 6.74984 3.64408L3.64359 6.75033C3.42788 6.96582 3.28514 7.2435 3.23544 7.54433C3.18574 7.84515 3.23158 8.15399 3.36651 8.42741L4.66443 11.0232L1.90818 11.942C1.62087 12.039 1.37096 12.2232 1.19322 12.4689C1.01549 12.7146 0.918761 13.0096 0.916509 13.3128V17.6878C0.91572 17.9936 1.01104 18.2918 1.18899 18.5404C1.36694 18.789 1.61852 18.9754 1.90818 19.0732L4.66443 19.992L3.36651 22.5878C3.23494 22.8595 3.19093 23.1654 3.24056 23.4632C3.29019 23.7609 3.43101 24.036 3.64359 24.2503L6.74984 27.3566C6.96533 27.5723 7.24301 27.715 7.54384 27.7647C7.84467 27.8144 8.1535 27.7686 8.42693 27.6337L11.0228 26.3357L11.9415 29.092C12.0393 29.3817 12.2257 29.6332 12.4743 29.8112C12.7229 29.9891 13.0212 30.0845 13.3269 30.0837H17.7019C18.0077 30.0845 18.3059 29.9891 18.5545 29.8112C18.8031 29.6332 18.9895 29.3817 19.0873 29.092L20.0061 26.3357L22.6019 27.6337C22.8719 27.7619 23.1748 27.8041 23.4695 27.7546C23.7643 27.705 24.0367 27.5661 24.2498 27.3566L27.3561 24.2503C27.5718 24.0348 27.7145 23.7572 27.7642 23.4563C27.8139 23.1555 27.7681 22.8467 27.6332 22.5732L26.3353 19.9774L29.0915 19.0587C29.3788 18.9616 29.6287 18.7775 29.8065 18.5318C29.9842 18.2861 30.0809 17.9911 30.0832 17.6878V13.3128C30.084 13.0071 29.9886 12.7089 29.8107 12.4602C29.6327 12.2116 29.3812 12.0252 29.0915 11.9274ZM27.1665 16.6378L25.4165 17.2212C25.0141 17.3517 24.6449 17.5682 24.3345 17.8557C24.0241 18.1432 23.78 18.4947 23.6191 18.886C23.4581 19.2772 23.3842 19.6988 23.4025 20.1215C23.4207 20.5441 23.5307 20.9578 23.7248 21.3337L24.5561 22.9962L22.9519 24.6003L21.3332 23.7253C20.9592 23.539 20.5495 23.4352 20.132 23.421C19.7144 23.4067 19.2986 23.4824 18.9128 23.6428C18.527 23.8032 18.1802 24.0446 17.8958 24.3507C17.6114 24.6568 17.3961 25.0205 17.2644 25.417L16.6811 27.167H14.3623L13.779 25.417C13.6485 25.0146 13.432 24.6454 13.1445 24.335C12.857 24.0246 12.5055 23.7805 12.1142 23.6195C11.723 23.4586 11.3014 23.3847 10.8787 23.403C10.456 23.4212 10.0424 23.5312 9.66651 23.7253L8.00401 24.5566L6.39984 22.9524L7.27484 21.3337C7.46894 20.9578 7.57893 20.5441 7.5972 20.1215C7.61547 19.6988 7.54157 19.2772 7.38063 18.886C7.21969 18.4947 6.97556 18.1432 6.66518 17.8557C6.3548 17.5682 5.98559 17.3517 5.58317 17.2212L3.83318 16.6378V14.3628L5.58317 13.7795C5.98559 13.649 6.3548 13.4324 6.66518 13.145C6.97556 12.8575 7.21969 12.5059 7.38063 12.1147C7.54157 11.7234 7.61547 11.3019 7.5972 10.8792C7.57893 10.4565 7.46894 10.0429 7.27484 9.667L6.44359 8.04825L8.04776 6.44408L9.66651 7.27533C10.0424 7.46943 10.456 7.57942 10.8787 7.59769C11.3014 7.61595 11.723 7.54206 12.1142 7.38112C12.5055 7.22018 12.857 6.97605 13.1445 6.66567C13.432 6.35529 13.6485 5.98608 13.779 5.58366L14.3623 3.83366H16.6373L17.2207 5.58366C17.3512 5.98608 17.5677 6.35529 17.8552 6.66567C18.1427 6.97605 18.4942 7.22018 18.8855 7.38112C19.2767 7.54206 19.6983 7.61595 20.121 7.59769C20.5436 7.57942 20.9573 7.46943 21.3332 7.27533L22.9957 6.44408L24.5998 8.04825L23.7248 9.667C23.5385 10.041 23.4347 10.4506 23.4205 10.8682C23.4062 11.2858 23.4819 11.7016 23.6423 12.0874C23.8027 12.4732 24.0441 12.82 24.3502 13.1044C24.6563 13.3888 25.02 13.6041 25.4165 13.7357L27.1665 14.3191V16.6378ZM15.4998 9.667C14.3461 9.667 13.2183 10.0091 12.259 10.6501C11.2997 11.2911 10.5521 12.2021 10.1105 13.268C9.66903 14.3339 9.55351 15.5068 9.77859 16.6384C10.0037 17.7699 10.5592 18.8093 11.3751 19.6251C12.1909 20.4409 13.2303 20.9965 14.3618 21.2216C15.4934 21.4467 16.6663 21.3311 17.7322 20.8896C18.7981 20.4481 19.7091 19.7004 20.3501 18.7412C20.9911 17.7819 21.3332 16.6541 21.3332 15.5003C21.3332 13.9532 20.7186 12.4695 19.6246 11.3755C18.5307 10.2816 17.0469 9.667 15.4998 9.667ZM15.4998 18.417C14.923 18.417 14.3591 18.2459 13.8794 17.9254C13.3998 17.605 13.0259 17.1494 12.8052 16.6165C12.5844 16.0835 12.5267 15.4971 12.6392 14.9313C12.7518 14.3655 13.0295 13.8458 13.4374 13.4379C13.8453 13.03 14.365 12.7522 14.9308 12.6397C15.4966 12.5272 16.083 12.5849 16.616 12.8057C17.149 13.0264 17.6045 13.4003 17.925 13.8799C18.2454 14.3596 18.4165 14.9235 18.4165 15.5003C18.4165 16.2739 18.1092 17.0157 17.5622 17.5627C17.0153 18.1097 16.2734 18.417 15.4998 18.417Z" fill="#F2F2F2"/>
</svg>
