<svg width="25" height="25" viewBox="0 0 25 25" fill="none" xmlns="http://www.w3.org/2000/svg">
<path d="M22.2085 9.94759L20.2397 9.29134L21.1668 7.43718C21.2608 7.2431 21.2922 7.02464 21.2568 6.81194C21.2213 6.59924 21.1208 6.40278 20.9689 6.24968L18.7502 4.03093C18.5962 3.87685 18.3979 3.77489 18.183 3.73939C17.9681 3.70389 17.7476 3.73663 17.5522 3.83301L15.6981 4.76009L15.0418 2.79134C14.9725 2.58613 14.841 2.40762 14.6655 2.28067C14.49 2.15371 14.2793 2.08462 14.0627 2.08301H10.9377C10.7193 2.08245 10.5063 2.15053 10.3287 2.27764C10.1511 2.40475 10.018 2.58445 9.94808 2.79134L9.29183 4.76009L7.43767 3.83301C7.24359 3.73903 7.02513 3.7076 6.81243 3.74305C6.59973 3.7785 6.40327 3.87908 6.25017 4.03093L4.03142 6.24968C3.87734 6.4036 3.77538 6.60194 3.73988 6.81682C3.70438 7.03169 3.73712 7.25229 3.8335 7.44759L4.76058 9.30176L2.79183 9.95801C2.58662 10.0273 2.40811 10.1589 2.28115 10.3344C2.1542 10.5099 2.08511 10.7206 2.0835 10.9372V14.0622C2.08294 14.2806 2.15102 14.4936 2.27813 14.6712C2.40523 14.8487 2.58494 14.9819 2.79183 15.0518L4.76058 15.708L3.8335 17.5622C3.73952 17.7563 3.70809 17.9747 3.74354 18.1874C3.77899 18.4001 3.87957 18.5966 4.03142 18.7497L6.25017 20.9684C6.40409 21.1225 6.60243 21.2245 6.81731 21.26C7.03218 21.2955 7.25278 21.2627 7.44808 21.1663L9.30225 20.2393L9.9585 22.208C10.0284 22.4149 10.1615 22.5946 10.3391 22.7217C10.5167 22.8488 10.7297 22.9169 10.9481 22.9163H14.0731C14.2915 22.9169 14.5045 22.8488 14.6821 22.7217C14.8596 22.5946 14.9928 22.4149 15.0627 22.208L15.7189 20.2393L17.5731 21.1663C17.7659 21.258 17.9822 21.2881 18.1928 21.2527C18.4033 21.2173 18.5979 21.1181 18.7502 20.9684L20.9689 18.7497C21.123 18.5958 21.225 18.3974 21.2605 18.1825C21.296 17.9677 21.2632 17.7471 21.1668 17.5518L20.2397 15.6976L22.2085 15.0413C22.4137 14.972 22.5922 14.8405 22.7192 14.665C22.8461 14.4895 22.9152 14.2788 22.9168 14.0622V10.9372C22.9174 10.7188 22.8493 10.5058 22.7222 10.3282C22.5951 10.1506 22.4154 10.0175 22.2085 9.94759ZM20.8335 13.3122L19.5835 13.7288C19.2961 13.8221 19.0323 13.9767 18.8106 14.1821C18.5889 14.3874 18.4146 14.6385 18.2996 14.918C18.1846 15.1975 18.1319 15.4986 18.1449 15.8005C18.158 16.1024 18.2365 16.3978 18.3752 16.6663L18.9689 17.8538L17.8231 18.9997L16.6668 18.3747C16.3997 18.2416 16.1071 18.1675 15.8088 18.1573C15.5105 18.1471 15.2136 18.2011 14.938 18.3157C14.6624 18.4303 14.4147 18.6027 14.2115 18.8214C14.0084 19.04 13.8546 19.2998 13.7606 19.583L13.3439 20.833H11.6877L11.271 19.583C11.1778 19.2956 11.0231 19.0319 10.8178 18.8102C10.6124 18.5885 10.3613 18.4141 10.0819 18.2991C9.80239 18.1842 9.50126 18.1314 9.19936 18.1444C8.89746 18.1575 8.602 18.236 8.3335 18.3747L7.146 18.9684L6.00017 17.8226L6.62517 16.6663C6.76381 16.3978 6.84237 16.1024 6.85542 15.8005C6.86847 15.4986 6.81568 15.1975 6.70073 14.918C6.58577 14.6385 6.41139 14.3874 6.18969 14.1821C5.96799 13.9767 5.70427 13.8221 5.41683 13.7288L4.16683 13.3122V11.6872L5.41683 11.2705C5.70427 11.1773 5.96799 11.0226 6.18969 10.8173C6.41139 10.6119 6.58577 10.3608 6.70073 10.0814C6.81568 9.8019 6.86847 9.50077 6.85542 9.19887C6.84237 8.89697 6.76381 8.60152 6.62517 8.33301L6.03142 7.17676L7.17725 6.03093L8.3335 6.62468C8.602 6.76332 8.89746 6.84189 9.19936 6.85493C9.50126 6.86798 9.80239 6.8152 10.0819 6.70024C10.3613 6.58528 10.6124 6.4109 10.8178 6.1892C11.0231 5.9675 11.1778 5.70379 11.271 5.41634L11.6877 4.16634H13.3127L13.7293 5.41634C13.8226 5.70379 13.9772 5.9675 14.1826 6.1892C14.3879 6.4109 14.639 6.58528 14.9185 6.70024C15.1979 6.8152 15.4991 6.86798 15.801 6.85493C16.1029 6.84189 16.3983 6.76332 16.6668 6.62468L17.8543 6.03093L19.0002 7.17676L18.3752 8.33301C18.2421 8.60014 18.1679 8.89275 18.1578 9.19102C18.1476 9.48929 18.2016 9.78627 18.3162 10.0618C18.4308 10.3374 18.6032 10.5852 18.8219 10.7883C19.0405 10.9914 19.3003 11.1452 19.5835 11.2393L20.8335 11.6559V13.3122ZM12.5002 8.33301C11.6761 8.33301 10.8705 8.57738 10.1853 9.03522C9.50009 9.49306 8.96603 10.1438 8.65067 10.9052C8.3353 11.6665 8.25279 12.5043 8.41356 13.3126C8.57433 14.1208 8.97117 14.8632 9.55389 15.446C10.1366 16.0287 10.879 16.4255 11.6873 16.5863C12.4955 16.7471 13.3333 16.6645 14.0947 16.3492C14.856 16.0338 15.5068 15.4998 15.9646 14.8146C16.4225 14.1293 16.6668 13.3238 16.6668 12.4997C16.6668 11.3946 16.2278 10.3348 15.4464 9.5534C14.665 8.772 13.6052 8.33301 12.5002 8.33301ZM12.5002 14.583C12.0881 14.583 11.6853 14.4608 11.3427 14.2319C11.0001 14.003 10.7331 13.6776 10.5754 13.2969C10.4177 12.9163 10.3765 12.4974 10.4569 12.0932C10.5372 11.6891 10.7357 11.3179 11.027 11.0265C11.3184 10.7352 11.6896 10.5368 12.0937 10.4564C12.4979 10.376 12.9167 10.4172 13.2974 10.5749C13.6781 10.7326 14.0035 10.9996 14.2324 11.3422C14.4613 11.6848 14.5835 12.0876 14.5835 12.4997C14.5835 13.0522 14.364 13.5821 13.9733 13.9728C13.5826 14.3635 13.0527 14.583 12.5002 14.583Z" fill="#00E467"/>
</svg>
