<svg width="31" height="32" viewBox="0 0 31 32" fill="none" xmlns="http://www.w3.org/2000/svg">
<g opacity="0.25">
<path opacity="0.25" d="M28.8071 14.5766H26.3401V12.1095C26.3401 11.7824 26.2101 11.4686 25.9788 11.2373C25.7474 11.0059 25.4337 10.876 25.1065 10.876C24.7794 10.876 24.4656 11.0059 24.2343 11.2373C24.0029 11.4686 23.873 11.7824 23.873 12.1095V14.5766H21.4059C21.0787 14.5766 20.765 14.7066 20.5337 14.9379C20.3023 15.1692 20.1724 15.483 20.1724 15.8101C20.1724 16.1373 20.3023 16.451 20.5337 16.6824C20.765 16.9137 21.0787 17.0437 21.4059 17.0437H23.873V19.5108C23.873 19.8379 24.0029 20.1517 24.2343 20.383C24.4656 20.6143 24.7794 20.7443 25.1065 20.7443C25.4337 20.7443 25.7474 20.6143 25.9788 20.383C26.2101 20.1517 26.3401 19.8379 26.3401 19.5108V17.0437H28.8071C29.1343 17.0437 29.448 16.9137 29.6794 16.6824C29.9107 16.451 30.0407 16.1373 30.0407 15.8101C30.0407 15.483 29.9107 15.1692 29.6794 14.9379C29.448 14.7066 29.1343 14.5766 28.8071 14.5766Z" fill="#00E467"/>
<path opacity="0.25" d="M11.4574 15.8157C12.9303 15.8231 14.3723 15.3929 15.6005 14.5798C16.8287 13.7667 17.7878 12.6072 18.3563 11.2483C18.9248 9.88948 19.077 8.39244 18.7937 6.94697C18.5104 5.50151 17.8043 4.1727 16.7649 3.12899C15.7255 2.08528 14.3997 1.37368 12.9554 1.08436C11.5111 0.795038 10.0134 0.941025 8.65223 1.50385C7.29102 2.06667 6.12757 3.02098 5.30934 4.24578C4.49111 5.47059 4.05495 6.91074 4.05615 8.38371C4.05776 10.349 4.83707 12.2337 6.22384 13.6263C7.61061 15.0188 9.49212 15.806 11.4574 15.8157ZM11.4574 3.42493C12.4333 3.42493 13.3872 3.71431 14.1986 4.25648C15.0101 4.79864 15.6425 5.56924 16.0159 6.47083C16.3894 7.37242 16.4871 8.36451 16.2967 9.32163C16.1063 10.2788 15.6364 11.1579 14.9463 11.848C14.2563 12.538 13.3771 13.008 12.42 13.1984C11.4628 13.3887 10.4708 13.291 9.56916 12.9176C8.66756 12.5441 7.89695 11.9117 7.35478 11.1003C6.81261 10.2889 6.52323 9.33493 6.52323 8.35905C6.52323 7.05044 7.04308 5.79542 7.96841 4.8701C8.89374 3.94477 10.1488 3.42493 11.4574 3.42493Z" fill="#00E467"/>
<path opacity="0.25" d="M11.4575 18.2949C8.50211 18.2998 5.66924 19.4764 3.58003 21.5668C1.49081 23.6571 0.315762 26.4906 0.3125 29.446C0.3125 29.7732 0.442461 30.0869 0.673794 30.3182C0.905127 30.5496 1.21888 30.6795 1.54604 30.6795C1.87319 30.6795 2.18695 30.5496 2.41828 30.3182C2.64961 30.0869 2.77958 29.7732 2.77958 29.446C2.77958 27.1461 3.69321 24.9405 5.31948 23.3142C6.94575 21.6879 9.15145 20.7743 11.4513 20.7743C13.7512 20.7743 15.9569 21.6879 17.5832 23.3142C19.2095 24.9405 20.1231 27.1461 20.1231 29.446C20.1231 29.7732 20.2531 30.0869 20.4844 30.3182C20.7157 30.5496 21.0295 30.6795 21.3567 30.6795C21.6838 30.6795 21.9976 30.5496 22.2289 30.3182C22.4602 30.0869 22.5902 29.7732 22.5902 29.446C22.5869 26.4928 21.4136 23.6611 19.327 21.5711C17.2405 19.4811 14.4108 18.3031 11.4575 18.2949Z" fill="#00E467"/>
</g>
<g opacity="0.25">
<path opacity="0.25" d="M28.8071 15.0532H26.3401V12.5861C26.3401 12.2589 26.2101 11.9452 25.9788 11.7138C25.7474 11.4825 25.4337 11.3525 25.1065 11.3525C24.7794 11.3525 24.4656 11.4825 24.2343 11.7138C24.0029 11.9452 23.873 12.2589 23.873 12.5861V15.0532H21.4059C21.0787 15.0532 20.765 15.1831 20.5337 15.4145C20.3023 15.6458 20.1724 15.9595 20.1724 16.2867C20.1724 16.6139 20.3023 16.9276 20.5337 17.1589C20.765 17.3903 21.0787 17.5202 21.4059 17.5202H23.873V19.9873C23.873 20.3145 24.0029 20.6282 24.2343 20.8596C24.4656 21.0909 24.7794 21.2209 25.1065 21.2209C25.4337 21.2209 25.7474 21.0909 25.9788 20.8596C26.2101 20.6282 26.3401 20.3145 26.3401 19.9873V17.5202H28.8071C29.1343 17.5202 29.448 17.3903 29.6794 17.1589C29.9107 16.9276 30.0407 16.6139 30.0407 16.2867C30.0407 15.9595 29.9107 15.6458 29.6794 15.4145C29.448 15.1831 29.1343 15.0532 28.8071 15.0532Z" fill="#00E467"/>
<path opacity="0.25" d="M11.4574 16.2923C12.9303 16.2996 14.3723 15.8695 15.6005 15.0563C16.8287 14.2432 17.7878 13.0837 18.3563 11.7249C18.9248 10.366 19.077 8.869 18.7937 7.42354C18.5104 5.97807 17.8043 4.64926 16.7649 3.60555C15.7255 2.56184 14.3997 1.85024 12.9554 1.56092C11.5111 1.2716 10.0134 1.41759 8.65223 1.98041C7.29102 2.54323 6.12757 3.49754 5.30934 4.72235C4.49111 5.94715 4.05495 7.3873 4.05615 8.86027C4.05776 10.8255 4.83707 12.7103 6.22384 14.1028C7.61061 15.4954 9.49212 16.2825 11.4574 16.2923ZM11.4574 3.90149C12.4333 3.90149 13.3872 4.19087 14.1986 4.73304C15.0101 5.27521 15.6425 6.0458 16.0159 6.94739C16.3894 7.84898 16.4871 8.84107 16.2967 9.7982C16.1063 10.7553 15.6364 11.6345 14.9463 12.3245C14.2563 13.0146 13.3771 13.4845 12.42 13.6749C11.4628 13.8653 10.4708 13.7676 9.56916 13.3941C8.66756 13.0207 7.89695 12.3883 7.35478 11.5769C6.81261 10.7654 6.52323 9.81149 6.52323 8.83561C6.52323 7.527 7.04308 6.27199 7.96841 5.34666C8.89374 4.42133 10.1488 3.90149 11.4574 3.90149Z" fill="#00E467"/>
<path opacity="0.25" d="M11.4575 18.7715C8.50211 18.7764 5.66924 19.953 3.58003 22.0433C1.49081 24.1337 0.315762 26.9672 0.3125 29.9226C0.3125 30.2497 0.442461 30.5635 0.673794 30.7948C0.905127 31.0261 1.21888 31.1561 1.54604 31.1561C1.87319 31.1561 2.18695 31.0261 2.41828 30.7948C2.64961 30.5635 2.77958 30.2497 2.77958 29.9226C2.77958 27.6227 3.69321 25.417 5.31948 23.7908C6.94575 22.1645 9.15145 21.2509 11.4513 21.2509C13.7512 21.2509 15.9569 22.1645 17.5832 23.7908C19.2095 25.417 20.1231 27.6227 20.1231 29.9226C20.1231 30.2497 20.2531 30.5635 20.4844 30.7948C20.7157 31.0261 21.0295 31.1561 21.3567 31.1561C21.6838 31.1561 21.9976 31.0261 22.2289 30.7948C22.4602 30.5635 22.5902 30.2497 22.5902 29.9226C22.5869 26.9693 21.4136 24.1377 19.327 22.0477C17.2405 19.9577 14.4108 18.7796 11.4575 18.7715Z" fill="#00E467"/>
</g>
<g opacity="0.25">
<path opacity="0.25" d="M28.8071 14.5766H26.3401V12.1095C26.3401 11.7824 26.2101 11.4686 25.9788 11.2373C25.7474 11.0059 25.4337 10.876 25.1065 10.876C24.7794 10.876 24.4656 11.0059 24.2343 11.2373C24.0029 11.4686 23.873 11.7824 23.873 12.1095V14.5766H21.4059C21.0787 14.5766 20.765 14.7066 20.5337 14.9379C20.3023 15.1692 20.1724 15.483 20.1724 15.8101C20.1724 16.1373 20.3023 16.451 20.5337 16.6824C20.765 16.9137 21.0787 17.0437 21.4059 17.0437H23.873V19.5108C23.873 19.8379 24.0029 20.1517 24.2343 20.383C24.4656 20.6143 24.7794 20.7443 25.1065 20.7443C25.4337 20.7443 25.7474 20.6143 25.9788 20.383C26.2101 20.1517 26.3401 19.8379 26.3401 19.5108V17.0437H28.8071C29.1343 17.0437 29.448 16.9137 29.6794 16.6824C29.9107 16.451 30.0407 16.1373 30.0407 15.8101C30.0407 15.483 29.9107 15.1692 29.6794 14.9379C29.448 14.7066 29.1343 14.5766 28.8071 14.5766Z" fill="#00E467"/>
<path opacity="0.25" d="M11.4574 15.8157C12.9303 15.8231 14.3723 15.3929 15.6005 14.5798C16.8287 13.7667 17.7878 12.6072 18.3563 11.2483C18.9248 9.88948 19.077 8.39244 18.7937 6.94697C18.5104 5.50151 17.8043 4.1727 16.7649 3.12899C15.7255 2.08528 14.3997 1.37368 12.9554 1.08436C11.5111 0.795038 10.0134 0.941025 8.65223 1.50385C7.29102 2.06667 6.12757 3.02098 5.30934 4.24578C4.49111 5.47059 4.05495 6.91074 4.05615 8.38371C4.05776 10.349 4.83707 12.2337 6.22384 13.6263C7.61061 15.0188 9.49212 15.806 11.4574 15.8157ZM11.4574 3.42493C12.4333 3.42493 13.3872 3.71431 14.1986 4.25648C15.0101 4.79864 15.6425 5.56924 16.0159 6.47083C16.3894 7.37242 16.4871 8.36451 16.2967 9.32163C16.1063 10.2788 15.6364 11.1579 14.9463 11.848C14.2563 12.538 13.3771 13.008 12.42 13.1984C11.4628 13.3887 10.4708 13.291 9.56916 12.9176C8.66756 12.5441 7.89695 11.9117 7.35478 11.1003C6.81261 10.2889 6.52323 9.33493 6.52323 8.35905C6.52323 7.05044 7.04308 5.79542 7.96841 4.8701C8.89374 3.94477 10.1488 3.42493 11.4574 3.42493Z" fill="#00E467"/>
<path opacity="0.25" d="M11.4575 18.2949C8.50211 18.2998 5.66924 19.4764 3.58003 21.5668C1.49081 23.6571 0.315762 26.4906 0.3125 29.446C0.3125 29.7732 0.442461 30.0869 0.673794 30.3182C0.905127 30.5496 1.21888 30.6795 1.54604 30.6795C1.87319 30.6795 2.18695 30.5496 2.41828 30.3182C2.64961 30.0869 2.77958 29.7732 2.77958 29.446C2.77958 27.1461 3.69321 24.9405 5.31948 23.3142C6.94575 21.6879 9.15145 20.7743 11.4513 20.7743C13.7512 20.7743 15.9569 21.6879 17.5832 23.3142C19.2095 24.9405 20.1231 27.1461 20.1231 29.446C20.1231 29.7732 20.2531 30.0869 20.4844 30.3182C20.7157 30.5496 21.0295 30.6795 21.3567 30.6795C21.6838 30.6795 21.9976 30.5496 22.2289 30.3182C22.4602 30.0869 22.5902 29.7732 22.5902 29.446C22.5869 26.4928 21.4136 23.6611 19.327 21.5711C17.2405 19.4811 14.4108 18.3031 11.4575 18.2949Z" fill="#00E467"/>
</g>
<g opacity="0.25">
<path opacity="0.25" d="M28.8071 15.0532H26.3401V12.5861C26.3401 12.2589 26.2101 11.9452 25.9788 11.7138C25.7474 11.4825 25.4337 11.3525 25.1065 11.3525C24.7794 11.3525 24.4656 11.4825 24.2343 11.7138C24.0029 11.9452 23.873 12.2589 23.873 12.5861V15.0532H21.4059C21.0787 15.0532 20.765 15.1831 20.5337 15.4145C20.3023 15.6458 20.1724 15.9595 20.1724 16.2867C20.1724 16.6139 20.3023 16.9276 20.5337 17.1589C20.765 17.3903 21.0787 17.5202 21.4059 17.5202H23.873V19.9873C23.873 20.3145 24.0029 20.6282 24.2343 20.8596C24.4656 21.0909 24.7794 21.2209 25.1065 21.2209C25.4337 21.2209 25.7474 21.0909 25.9788 20.8596C26.2101 20.6282 26.3401 20.3145 26.3401 19.9873V17.5202H28.8071C29.1343 17.5202 29.448 17.3903 29.6794 17.1589C29.9107 16.9276 30.0407 16.6139 30.0407 16.2867C30.0407 15.9595 29.9107 15.6458 29.6794 15.4145C29.448 15.1831 29.1343 15.0532 28.8071 15.0532Z" fill="#00E467"/>
<path opacity="0.25" d="M11.4574 16.2923C12.9303 16.2996 14.3723 15.8695 15.6005 15.0563C16.8287 14.2432 17.7878 13.0837 18.3563 11.7249C18.9248 10.366 19.077 8.869 18.7937 7.42354C18.5104 5.97807 17.8043 4.64926 16.7649 3.60555C15.7255 2.56184 14.3997 1.85024 12.9554 1.56092C11.5111 1.2716 10.0134 1.41759 8.65223 1.98041C7.29102 2.54323 6.12757 3.49754 5.30934 4.72235C4.49111 5.94715 4.05495 7.3873 4.05615 8.86027C4.05776 10.8255 4.83707 12.7103 6.22384 14.1028C7.61061 15.4954 9.49212 16.2825 11.4574 16.2923ZM11.4574 3.90149C12.4333 3.90149 13.3872 4.19087 14.1986 4.73304C15.0101 5.27521 15.6425 6.0458 16.0159 6.94739C16.3894 7.84898 16.4871 8.84107 16.2967 9.7982C16.1063 10.7553 15.6364 11.6345 14.9463 12.3245C14.2563 13.0146 13.3771 13.4845 12.42 13.6749C11.4628 13.8653 10.4708 13.7676 9.56916 13.3941C8.66756 13.0207 7.89695 12.3883 7.35478 11.5769C6.81261 10.7654 6.52323 9.81149 6.52323 8.83561C6.52323 7.527 7.04308 6.27199 7.96841 5.34666C8.89374 4.42133 10.1488 3.90149 11.4574 3.90149Z" fill="#00E467"/>
<path opacity="0.25" d="M11.4575 18.7715C8.50211 18.7764 5.66924 19.953 3.58003 22.0433C1.49081 24.1337 0.315762 26.9672 0.3125 29.9226C0.3125 30.2497 0.442461 30.5635 0.673794 30.7948C0.905127 31.0261 1.21888 31.1561 1.54604 31.1561C1.87319 31.1561 2.18695 31.0261 2.41828 30.7948C2.64961 30.5635 2.77958 30.2497 2.77958 29.9226C2.77958 27.6227 3.69321 25.417 5.31948 23.7908C6.94575 22.1645 9.15145 21.2509 11.4513 21.2509C13.7512 21.2509 15.9569 22.1645 17.5832 23.7908C19.2095 25.417 20.1231 27.6227 20.1231 29.9226C20.1231 30.2497 20.2531 30.5635 20.4844 30.7948C20.7157 31.0261 21.0295 31.1561 21.3567 31.1561C21.6838 31.1561 21.9976 31.0261 22.2289 30.7948C22.4602 30.5635 22.5902 30.2497 22.5902 29.9226C22.5869 26.9693 21.4136 24.1377 19.327 22.0477C17.2405 19.9577 14.4108 18.7796 11.4575 18.7715Z" fill="#00E467"/>
</g>
<g opacity="0.25">
<path opacity="0.25" d="M28.8071 15.0532H26.3401V12.5861C26.3401 12.2589 26.2101 11.9452 25.9788 11.7138C25.7474 11.4825 25.4337 11.3525 25.1065 11.3525C24.7794 11.3525 24.4656 11.4825 24.2343 11.7138C24.0029 11.9452 23.873 12.2589 23.873 12.5861V15.0532H21.4059C21.0787 15.0532 20.765 15.1831 20.5337 15.4145C20.3023 15.6458 20.1724 15.9595 20.1724 16.2867C20.1724 16.6139 20.3023 16.9276 20.5337 17.1589C20.765 17.3903 21.0787 17.5202 21.4059 17.5202H23.873V19.9873C23.873 20.3145 24.0029 20.6282 24.2343 20.8596C24.4656 21.0909 24.7794 21.2209 25.1065 21.2209C25.4337 21.2209 25.7474 21.0909 25.9788 20.8596C26.2101 20.6282 26.3401 20.3145 26.3401 19.9873V17.5202H28.8071C29.1343 17.5202 29.448 17.3903 29.6794 17.1589C29.9107 16.9276 30.0407 16.6139 30.0407 16.2867C30.0407 15.9595 29.9107 15.6458 29.6794 15.4145C29.448 15.1831 29.1343 15.0532 28.8071 15.0532Z" fill="#00E467"/>
<path opacity="0.25" d="M11.4574 16.2923C12.9303 16.2996 14.3723 15.8695 15.6005 15.0563C16.8287 14.2432 17.7878 13.0837 18.3563 11.7249C18.9248 10.366 19.077 8.869 18.7937 7.42354C18.5104 5.97807 17.8043 4.64926 16.7649 3.60555C15.7255 2.56184 14.3997 1.85024 12.9554 1.56092C11.5111 1.2716 10.0134 1.41759 8.65223 1.98041C7.29102 2.54323 6.12757 3.49754 5.30934 4.72235C4.49111 5.94715 4.05495 7.3873 4.05615 8.86027C4.05776 10.8255 4.83707 12.7103 6.22384 14.1028C7.61061 15.4954 9.49212 16.2825 11.4574 16.2923ZM11.4574 3.90149C12.4333 3.90149 13.3872 4.19087 14.1986 4.73304C15.0101 5.27521 15.6425 6.0458 16.0159 6.94739C16.3894 7.84898 16.4871 8.84107 16.2967 9.7982C16.1063 10.7553 15.6364 11.6345 14.9463 12.3245C14.2563 13.0146 13.3771 13.4845 12.42 13.6749C11.4628 13.8653 10.4708 13.7676 9.56916 13.3941C8.66756 13.0207 7.89695 12.3883 7.35478 11.5769C6.81261 10.7654 6.52323 9.81149 6.52323 8.83561C6.52323 7.527 7.04308 6.27199 7.96841 5.34666C8.89374 4.42133 10.1488 3.90149 11.4574 3.90149Z" fill="#00E467"/>
<path opacity="0.25" d="M11.4575 18.7715C8.50211 18.7764 5.66924 19.953 3.58003 22.0433C1.49081 24.1337 0.315762 26.9672 0.3125 29.9226C0.3125 30.2497 0.442461 30.5635 0.673794 30.7948C0.905127 31.0261 1.21888 31.1561 1.54604 31.1561C1.87319 31.1561 2.18695 31.0261 2.41828 30.7948C2.64961 30.5635 2.77958 30.2497 2.77958 29.9226C2.77958 27.6227 3.69321 25.417 5.31948 23.7908C6.94575 22.1645 9.15145 21.2509 11.4513 21.2509C13.7512 21.2509 15.9569 22.1645 17.5832 23.7908C19.2095 25.417 20.1231 27.6227 20.1231 29.9226C20.1231 30.2497 20.2531 30.5635 20.4844 30.7948C20.7157 31.0261 21.0295 31.1561 21.3567 31.1561C21.6838 31.1561 21.9976 31.0261 22.2289 30.7948C22.4602 30.5635 22.5902 30.2497 22.5902 29.9226C22.5869 26.9693 21.4136 24.1377 19.327 22.0477C17.2405 19.9577 14.4108 18.7796 11.4575 18.7715Z" fill="#00E467"/>
</g>
<g opacity="0.25">
<path opacity="0.25" d="M28.8071 15.0532H26.3401V12.5861C26.3401 12.2589 26.2101 11.9452 25.9788 11.7138C25.7474 11.4825 25.4337 11.3525 25.1065 11.3525C24.7794 11.3525 24.4656 11.4825 24.2343 11.7138C24.0029 11.9452 23.873 12.2589 23.873 12.5861V15.0532H21.4059C21.0787 15.0532 20.765 15.1831 20.5337 15.4145C20.3023 15.6458 20.1724 15.9595 20.1724 16.2867C20.1724 16.6139 20.3023 16.9276 20.5337 17.1589C20.765 17.3903 21.0787 17.5202 21.4059 17.5202H23.873V19.9873C23.873 20.3145 24.0029 20.6282 24.2343 20.8596C24.4656 21.0909 24.7794 21.2209 25.1065 21.2209C25.4337 21.2209 25.7474 21.0909 25.9788 20.8596C26.2101 20.6282 26.3401 20.3145 26.3401 19.9873V17.5202H28.8071C29.1343 17.5202 29.448 17.3903 29.6794 17.1589C29.9107 16.9276 30.0407 16.6139 30.0407 16.2867C30.0407 15.9595 29.9107 15.6458 29.6794 15.4145C29.448 15.1831 29.1343 15.0532 28.8071 15.0532Z" fill="#00E467"/>
<path opacity="0.25" d="M11.4574 16.2923C12.9303 16.2996 14.3723 15.8695 15.6005 15.0563C16.8287 14.2432 17.7878 13.0837 18.3563 11.7249C18.9248 10.366 19.077 8.869 18.7937 7.42354C18.5104 5.97807 17.8043 4.64926 16.7649 3.60555C15.7255 2.56184 14.3997 1.85024 12.9554 1.56092C11.5111 1.2716 10.0134 1.41759 8.65223 1.98041C7.29102 2.54323 6.12757 3.49754 5.30934 4.72235C4.49111 5.94715 4.05495 7.3873 4.05615 8.86027C4.05776 10.8255 4.83707 12.7103 6.22384 14.1028C7.61061 15.4954 9.49212 16.2825 11.4574 16.2923ZM11.4574 3.90149C12.4333 3.90149 13.3872 4.19087 14.1986 4.73304C15.0101 5.27521 15.6425 6.0458 16.0159 6.94739C16.3894 7.84898 16.4871 8.84107 16.2967 9.7982C16.1063 10.7553 15.6364 11.6345 14.9463 12.3245C14.2563 13.0146 13.3771 13.4845 12.42 13.6749C11.4628 13.8653 10.4708 13.7676 9.56916 13.3941C8.66756 13.0207 7.89695 12.3883 7.35478 11.5769C6.81261 10.7654 6.52323 9.81149 6.52323 8.83561C6.52323 7.527 7.04308 6.27199 7.96841 5.34666C8.89374 4.42133 10.1488 3.90149 11.4574 3.90149Z" fill="#00E467"/>
<path opacity="0.25" d="M11.4575 18.7715C8.50211 18.7764 5.66924 19.953 3.58003 22.0433C1.49081 24.1337 0.315762 26.9672 0.3125 29.9226C0.3125 30.2497 0.442461 30.5635 0.673794 30.7948C0.905127 31.0261 1.21888 31.1561 1.54604 31.1561C1.87319 31.1561 2.18695 31.0261 2.41828 30.7948C2.64961 30.5635 2.77958 30.2497 2.77958 29.9226C2.77958 27.6227 3.69321 25.417 5.31948 23.7908C6.94575 22.1645 9.15145 21.2509 11.4513 21.2509C13.7512 21.2509 15.9569 22.1645 17.5832 23.7908C19.2095 25.417 20.1231 27.6227 20.1231 29.9226C20.1231 30.2497 20.2531 30.5635 20.4844 30.7948C20.7157 31.0261 21.0295 31.1561 21.3567 31.1561C21.6838 31.1561 21.9976 31.0261 22.2289 30.7948C22.4602 30.5635 22.5902 30.2497 22.5902 29.9226C22.5869 26.9693 21.4136 24.1377 19.327 22.0477C17.2405 19.9577 14.4108 18.7796 11.4575 18.7715Z" fill="#00E467"/>
</g>
<g opacity="0.25">
<path opacity="0.25" d="M28.8071 15.0532H26.3401V12.5861C26.3401 12.2589 26.2101 11.9452 25.9788 11.7138C25.7474 11.4825 25.4337 11.3525 25.1065 11.3525C24.7794 11.3525 24.4656 11.4825 24.2343 11.7138C24.0029 11.9452 23.873 12.2589 23.873 12.5861V15.0532H21.4059C21.0787 15.0532 20.765 15.1831 20.5337 15.4145C20.3023 15.6458 20.1724 15.9595 20.1724 16.2867C20.1724 16.6139 20.3023 16.9276 20.5337 17.1589C20.765 17.3903 21.0787 17.5202 21.4059 17.5202H23.873V19.9873C23.873 20.3145 24.0029 20.6282 24.2343 20.8596C24.4656 21.0909 24.7794 21.2209 25.1065 21.2209C25.4337 21.2209 25.7474 21.0909 25.9788 20.8596C26.2101 20.6282 26.3401 20.3145 26.3401 19.9873V17.5202H28.8071C29.1343 17.5202 29.448 17.3903 29.6794 17.1589C29.9107 16.9276 30.0407 16.6139 30.0407 16.2867C30.0407 15.9595 29.9107 15.6458 29.6794 15.4145C29.448 15.1831 29.1343 15.0532 28.8071 15.0532Z" fill="#00E467"/>
<path opacity="0.25" d="M11.4574 16.2923C12.9303 16.2996 14.3723 15.8695 15.6005 15.0563C16.8287 14.2432 17.7878 13.0837 18.3563 11.7249C18.9248 10.366 19.077 8.869 18.7937 7.42354C18.5104 5.97807 17.8043 4.64926 16.7649 3.60555C15.7255 2.56184 14.3997 1.85024 12.9554 1.56092C11.5111 1.2716 10.0134 1.41759 8.65223 1.98041C7.29102 2.54323 6.12757 3.49754 5.30934 4.72235C4.49111 5.94715 4.05495 7.3873 4.05615 8.86027C4.05776 10.8255 4.83707 12.7103 6.22384 14.1028C7.61061 15.4954 9.49212 16.2825 11.4574 16.2923ZM11.4574 3.90149C12.4333 3.90149 13.3872 4.19087 14.1986 4.73304C15.0101 5.27521 15.6425 6.0458 16.0159 6.94739C16.3894 7.84898 16.4871 8.84107 16.2967 9.7982C16.1063 10.7553 15.6364 11.6345 14.9463 12.3245C14.2563 13.0146 13.3771 13.4845 12.42 13.6749C11.4628 13.8653 10.4708 13.7676 9.56916 13.3941C8.66756 13.0207 7.89695 12.3883 7.35478 11.5769C6.81261 10.7654 6.52323 9.81149 6.52323 8.83561C6.52323 7.527 7.04308 6.27199 7.96841 5.34666C8.89374 4.42133 10.1488 3.90149 11.4574 3.90149Z" fill="#00E467"/>
<path opacity="0.25" d="M11.4575 18.7715C8.50211 18.7764 5.66924 19.953 3.58003 22.0433C1.49081 24.1337 0.315762 26.9672 0.3125 29.9226C0.3125 30.2497 0.442461 30.5635 0.673794 30.7948C0.905127 31.0261 1.21888 31.1561 1.54604 31.1561C1.87319 31.1561 2.18695 31.0261 2.41828 30.7948C2.64961 30.5635 2.77958 30.2497 2.77958 29.9226C2.77958 27.6227 3.69321 25.417 5.31948 23.7908C6.94575 22.1645 9.15145 21.2509 11.4513 21.2509C13.7512 21.2509 15.9569 22.1645 17.5832 23.7908C19.2095 25.417 20.1231 27.6227 20.1231 29.9226C20.1231 30.2497 20.2531 30.5635 20.4844 30.7948C20.7157 31.0261 21.0295 31.1561 21.3567 31.1561C21.6838 31.1561 21.9976 31.0261 22.2289 30.7948C22.4602 30.5635 22.5902 30.2497 22.5902 29.9226C22.5869 26.9693 21.4136 24.1377 19.327 22.0477C17.2405 19.9577 14.4108 18.7796 11.4575 18.7715Z" fill="#00E467"/>
</g>
<g opacity="0.25">
<path opacity="0.25" d="M28.8071 15.0532H26.3401V12.5861C26.3401 12.2589 26.2101 11.9452 25.9788 11.7138C25.7474 11.4825 25.4337 11.3525 25.1065 11.3525C24.7794 11.3525 24.4656 11.4825 24.2343 11.7138C24.0029 11.9452 23.873 12.2589 23.873 12.5861V15.0532H21.4059C21.0787 15.0532 20.765 15.1831 20.5337 15.4145C20.3023 15.6458 20.1724 15.9595 20.1724 16.2867C20.1724 16.6139 20.3023 16.9276 20.5337 17.1589C20.765 17.3903 21.0787 17.5202 21.4059 17.5202H23.873V19.9873C23.873 20.3145 24.0029 20.6282 24.2343 20.8596C24.4656 21.0909 24.7794 21.2209 25.1065 21.2209C25.4337 21.2209 25.7474 21.0909 25.9788 20.8596C26.2101 20.6282 26.3401 20.3145 26.3401 19.9873V17.5202H28.8071C29.1343 17.5202 29.448 17.3903 29.6794 17.1589C29.9107 16.9276 30.0407 16.6139 30.0407 16.2867C30.0407 15.9595 29.9107 15.6458 29.6794 15.4145C29.448 15.1831 29.1343 15.0532 28.8071 15.0532Z" fill="#00E467"/>
<path opacity="0.25" d="M11.4574 16.2923C12.9303 16.2996 14.3723 15.8695 15.6005 15.0563C16.8287 14.2432 17.7878 13.0837 18.3563 11.7249C18.9248 10.366 19.077 8.869 18.7937 7.42354C18.5104 5.97807 17.8043 4.64926 16.7649 3.60555C15.7255 2.56184 14.3997 1.85024 12.9554 1.56092C11.5111 1.2716 10.0134 1.41759 8.65223 1.98041C7.29102 2.54323 6.12757 3.49754 5.30934 4.72235C4.49111 5.94715 4.05495 7.3873 4.05615 8.86027C4.05776 10.8255 4.83707 12.7103 6.22384 14.1028C7.61061 15.4954 9.49212 16.2825 11.4574 16.2923ZM11.4574 3.90149C12.4333 3.90149 13.3872 4.19087 14.1986 4.73304C15.0101 5.27521 15.6425 6.0458 16.0159 6.94739C16.3894 7.84898 16.4871 8.84107 16.2967 9.7982C16.1063 10.7553 15.6364 11.6345 14.9463 12.3245C14.2563 13.0146 13.3771 13.4845 12.42 13.6749C11.4628 13.8653 10.4708 13.7676 9.56916 13.3941C8.66756 13.0207 7.89695 12.3883 7.35478 11.5769C6.81261 10.7654 6.52323 9.81149 6.52323 8.83561C6.52323 7.527 7.04308 6.27199 7.96841 5.34666C8.89374 4.42133 10.1488 3.90149 11.4574 3.90149Z" fill="#00E467"/>
<path opacity="0.25" d="M11.4575 18.7715C8.50211 18.7764 5.66924 19.953 3.58003 22.0433C1.49081 24.1337 0.315762 26.9672 0.3125 29.9226C0.3125 30.2497 0.442461 30.5635 0.673794 30.7948C0.905127 31.0261 1.21888 31.1561 1.54604 31.1561C1.87319 31.1561 2.18695 31.0261 2.41828 30.7948C2.64961 30.5635 2.77958 30.2497 2.77958 29.9226C2.77958 27.6227 3.69321 25.417 5.31948 23.7908C6.94575 22.1645 9.15145 21.2509 11.4513 21.2509C13.7512 21.2509 15.9569 22.1645 17.5832 23.7908C19.2095 25.417 20.1231 27.6227 20.1231 29.9226C20.1231 30.2497 20.2531 30.5635 20.4844 30.7948C20.7157 31.0261 21.0295 31.1561 21.3567 31.1561C21.6838 31.1561 21.9976 31.0261 22.2289 30.7948C22.4602 30.5635 22.5902 30.2497 22.5902 29.9226C22.5869 26.9693 21.4136 24.1377 19.327 22.0477C17.2405 19.9577 14.4108 18.7796 11.4575 18.7715Z" fill="#00E467"/>
</g>
<g opacity="0.25">
<path opacity="0.25" d="M28.8071 15.0532H26.3401V12.5861C26.3401 12.2589 26.2101 11.9452 25.9788 11.7138C25.7474 11.4825 25.4337 11.3525 25.1065 11.3525C24.7794 11.3525 24.4656 11.4825 24.2343 11.7138C24.0029 11.9452 23.873 12.2589 23.873 12.5861V15.0532H21.4059C21.0787 15.0532 20.765 15.1831 20.5337 15.4145C20.3023 15.6458 20.1724 15.9595 20.1724 16.2867C20.1724 16.6139 20.3023 16.9276 20.5337 17.1589C20.765 17.3903 21.0787 17.5202 21.4059 17.5202H23.873V19.9873C23.873 20.3145 24.0029 20.6282 24.2343 20.8596C24.4656 21.0909 24.7794 21.2209 25.1065 21.2209C25.4337 21.2209 25.7474 21.0909 25.9788 20.8596C26.2101 20.6282 26.3401 20.3145 26.3401 19.9873V17.5202H28.8071C29.1343 17.5202 29.448 17.3903 29.6794 17.1589C29.9107 16.9276 30.0407 16.6139 30.0407 16.2867C30.0407 15.9595 29.9107 15.6458 29.6794 15.4145C29.448 15.1831 29.1343 15.0532 28.8071 15.0532Z" fill="#00E467"/>
<path opacity="0.25" d="M11.4574 16.2923C12.9303 16.2996 14.3723 15.8695 15.6005 15.0563C16.8287 14.2432 17.7878 13.0837 18.3563 11.7249C18.9248 10.366 19.077 8.869 18.7937 7.42354C18.5104 5.97807 17.8043 4.64926 16.7649 3.60555C15.7255 2.56184 14.3997 1.85024 12.9554 1.56092C11.5111 1.2716 10.0134 1.41759 8.65223 1.98041C7.29102 2.54323 6.12757 3.49754 5.30934 4.72235C4.49111 5.94715 4.05495 7.3873 4.05615 8.86027C4.05776 10.8255 4.83707 12.7103 6.22384 14.1028C7.61061 15.4954 9.49212 16.2825 11.4574 16.2923ZM11.4574 3.90149C12.4333 3.90149 13.3872 4.19087 14.1986 4.73304C15.0101 5.27521 15.6425 6.0458 16.0159 6.94739C16.3894 7.84898 16.4871 8.84107 16.2967 9.7982C16.1063 10.7553 15.6364 11.6345 14.9463 12.3245C14.2563 13.0146 13.3771 13.4845 12.42 13.6749C11.4628 13.8653 10.4708 13.7676 9.56916 13.3941C8.66756 13.0207 7.89695 12.3883 7.35478 11.5769C6.81261 10.7654 6.52323 9.81149 6.52323 8.83561C6.52323 7.527 7.04308 6.27199 7.96841 5.34666C8.89374 4.42133 10.1488 3.90149 11.4574 3.90149Z" fill="#00E467"/>
<path opacity="0.25" d="M11.4575 18.7715C8.50211 18.7764 5.66924 19.953 3.58003 22.0433C1.49081 24.1337 0.315762 26.9672 0.3125 29.9226C0.3125 30.2497 0.442461 30.5635 0.673794 30.7948C0.905127 31.0261 1.21888 31.1561 1.54604 31.1561C1.87319 31.1561 2.18695 31.0261 2.41828 30.7948C2.64961 30.5635 2.77958 30.2497 2.77958 29.9226C2.77958 27.6227 3.69321 25.417 5.31948 23.7908C6.94575 22.1645 9.15145 21.2509 11.4513 21.2509C13.7512 21.2509 15.9569 22.1645 17.5832 23.7908C19.2095 25.417 20.1231 27.6227 20.1231 29.9226C20.1231 30.2497 20.2531 30.5635 20.4844 30.7948C20.7157 31.0261 21.0295 31.1561 21.3567 31.1561C21.6838 31.1561 21.9976 31.0261 22.2289 30.7948C22.4602 30.5635 22.5902 30.2497 22.5902 29.9226C22.5869 26.9693 21.4136 24.1377 19.327 22.0477C17.2405 19.9577 14.4108 18.7796 11.4575 18.7715Z" fill="#00E467"/>
</g>
</svg>
