<svg width="31" height="25" viewBox="0 0 31 25" fill="none" xmlns="http://www.w3.org/2000/svg">
<path d="M28.6251 10.3128H27.1668V8.85449C27.1668 8.46772 27.0131 8.09679 26.7396 7.8233C26.4661 7.5498 26.0952 7.39616 25.7084 7.39616C25.3216 7.39616 24.9507 7.5498 24.6772 7.8233C24.4037 8.09679 24.2501 8.46772 24.2501 8.85449V10.3128H22.7918C22.405 10.3128 22.034 10.4665 21.7606 10.74C21.4871 11.0135 21.3334 11.3844 21.3334 11.7712C21.3334 12.1579 21.4871 12.5289 21.7606 12.8024C22.034 13.0758 22.405 13.2295 22.7918 13.2295H24.2501V14.6878C24.2501 15.0746 24.4037 15.4455 24.6772 15.719C24.9507 15.9925 25.3216 16.1462 25.7084 16.1462C26.0952 16.1462 26.4661 15.9925 26.7396 15.719C27.0131 15.4455 27.1668 15.0746 27.1668 14.6878V13.2295H28.6251C29.0119 13.2295 29.3828 13.0758 29.6563 12.8024C29.9298 12.5289 30.0834 12.1579 30.0834 11.7712C30.0834 11.3844 29.9298 11.0135 29.6563 10.74C29.3828 10.4665 29.0119 10.3128 28.6251 10.3128ZM17.3959 12.8212C18.1741 12.1476 18.7982 11.3145 19.2259 10.3785C19.6537 9.44244 19.8751 8.42532 19.8751 7.39616C19.8751 5.46229 19.1069 3.60762 17.7394 2.24017C16.372 0.872719 14.5173 0.104492 12.5834 0.104492C10.6495 0.104492 8.79488 0.872719 7.42743 2.24017C6.05998 3.60762 5.29175 5.46229 5.29175 7.39616C5.29174 8.42532 5.51313 9.44244 5.94089 10.3785C6.36865 11.3145 6.99278 12.1476 7.77092 12.8212C5.72945 13.7456 3.99743 15.2384 2.78193 17.1211C1.56643 19.0039 0.918895 21.1968 0.916748 23.4378C0.916748 23.8246 1.07039 24.1955 1.34388 24.469C1.61737 24.7425 1.98831 24.8962 2.37508 24.8962C2.76186 24.8962 3.13279 24.7425 3.40628 24.469C3.67977 24.1955 3.83342 23.8246 3.83342 23.4378C3.83342 21.1172 4.75529 18.8916 6.39623 17.2506C8.03717 15.6097 10.2628 14.6878 12.5834 14.6878C14.9041 14.6878 17.1297 15.6097 18.7706 17.2506C20.4115 18.8916 21.3334 21.1172 21.3334 23.4378C21.3334 23.8246 21.4871 24.1955 21.7606 24.469C22.034 24.7425 22.405 24.8962 22.7918 24.8962C23.1785 24.8962 23.5495 24.7425 23.8229 24.469C24.0964 24.1955 24.2501 23.8246 24.2501 23.4378C24.2479 21.1968 23.6004 19.0039 22.3849 17.1211C21.1694 15.2384 19.4374 13.7456 17.3959 12.8212V12.8212ZM12.5834 11.7712C11.7181 11.7712 10.8723 11.5146 10.1528 11.0338C9.43333 10.5531 8.87258 9.86983 8.54144 9.0704C8.21031 8.27097 8.12367 7.39131 8.29248 6.54264C8.46129 5.69397 8.87797 4.91442 9.48982 4.30257C10.1017 3.69071 10.8812 3.27403 11.7299 3.10522C12.5786 2.93641 13.4582 3.02305 14.2577 3.35419C15.0571 3.68532 15.7404 4.24607 16.2211 4.96554C16.7018 5.685 16.9584 6.53087 16.9584 7.39616C16.9584 8.55648 16.4975 9.66928 15.677 10.4898C14.8565 11.3102 13.7437 11.7712 12.5834 11.7712Z" fill="#F2F2F2"/>
</svg>
