<svg width="25" height="25" viewBox="0 0 25 25" fill="none" xmlns="http://www.w3.org/2000/svg">
<path d="M12.8125 12.7288C13.3683 12.2477 13.8141 11.6527 14.1197 10.9841C14.4252 10.3155 14.5833 9.58895 14.5833 8.85384C14.5833 7.47251 14.0346 6.14775 13.0578 5.17099C12.0811 4.19424 10.7563 3.64551 9.37499 3.64551C7.99365 3.64551 6.66889 4.19424 5.69214 5.17099C4.71539 6.14775 4.16666 7.47251 4.16666 8.85384C4.16665 9.58895 4.32478 10.3155 4.63033 10.9841C4.93587 11.6527 5.38168 12.2477 5.93749 12.7288C4.4793 13.3891 3.24214 14.4554 2.37393 15.8002C1.50571 17.145 1.04319 18.7115 1.04166 20.3122C1.04166 20.5884 1.1514 20.8534 1.34675 21.0487C1.5421 21.2441 1.80706 21.3538 2.08332 21.3538C2.35959 21.3538 2.62454 21.2441 2.81989 21.0487C3.01524 20.8534 3.12499 20.5884 3.12499 20.3122C3.12499 18.6546 3.78347 17.0649 4.95557 15.8928C6.12768 14.7207 7.71739 14.0622 9.37499 14.0622C11.0326 14.0622 12.6223 14.7207 13.7944 15.8928C14.9665 17.0649 15.625 18.6546 15.625 20.3122C15.625 20.5884 15.7347 20.8534 15.9301 21.0487C16.1254 21.2441 16.3904 21.3538 16.6667 21.3538C16.9429 21.3538 17.2079 21.2441 17.4032 21.0487C17.5986 20.8534 17.7083 20.5884 17.7083 20.3122C17.7068 18.7115 17.2443 17.145 16.3761 15.8002C15.5078 14.4554 14.2707 13.3891 12.8125 12.7288ZM9.37499 11.9788C8.75692 11.9788 8.15274 11.7956 7.63883 11.4522C7.12493 11.1088 6.72439 10.6207 6.48787 10.0497C6.25134 9.47871 6.18946 8.85037 6.31004 8.24418C6.43062 7.63799 6.72824 7.08117 7.16528 6.64413C7.60232 6.20709 8.15914 5.90947 8.76533 5.78889C9.37152 5.66831 9.99986 5.73019 10.5709 5.96672C11.1419 6.20324 11.63 6.60378 11.9733 7.11768C12.3167 7.63159 12.5 8.23577 12.5 8.85384C12.5 9.68264 12.1708 10.4775 11.5847 11.0635C10.9986 11.6496 10.2038 11.9788 9.37499 11.9788ZM19.5208 12.3122C20.1875 11.5615 20.6229 10.6341 20.7748 9.64169C20.9267 8.64928 20.7885 7.63413 20.3768 6.71842C19.9652 5.80272 19.2977 5.0255 18.4546 4.48032C17.6116 3.93514 16.629 3.64524 15.625 3.64551C15.3487 3.64551 15.0838 3.75525 14.8884 3.95061C14.6931 4.14596 14.5833 4.41091 14.5833 4.68717C14.5833 4.96344 14.6931 5.22839 14.8884 5.42374C15.0838 5.61909 15.3487 5.72884 15.625 5.72884C16.4538 5.72884 17.2486 6.05808 17.8347 6.64413C18.4208 7.23018 18.75 8.02504 18.75 8.85384C18.7485 9.40097 18.6034 9.93812 18.3292 10.4116C18.055 10.885 17.6613 11.2782 17.1875 11.5518C17.0331 11.6408 16.9041 11.7681 16.8129 11.9213C16.7217 12.0745 16.6713 12.2485 16.6667 12.4268C16.6623 12.6036 16.703 12.7786 16.7851 12.9354C16.8671 13.0921 16.9876 13.2254 17.1354 13.3226L17.5417 13.5934L17.6771 13.6663C18.9327 14.2619 19.992 15.2038 20.7302 16.3813C21.4684 17.5587 21.8547 18.9225 21.8437 20.3122C21.8437 20.5884 21.9535 20.8534 22.1488 21.0487C22.3442 21.2441 22.6091 21.3538 22.8854 21.3538C23.1617 21.3538 23.4266 21.2441 23.622 21.0487C23.8173 20.8534 23.9271 20.5884 23.9271 20.3122C23.9356 18.7137 23.5352 17.1395 22.764 15.7393C21.9928 14.3391 20.8764 13.1594 19.5208 12.3122Z" fill="#00E467"/>
</svg>
