<svg width="31" height="31" viewBox="0 0 31 31" fill="none" xmlns="http://www.w3.org/2000/svg">
<path d="M16.9582 14.042H8.20817C7.8214 14.042 7.45046 14.1956 7.17697 14.4691C6.90348 14.7426 6.74984 15.1136 6.74984 15.5003C6.74984 15.8871 6.90348 16.258 7.17697 16.5315C7.45046 16.805 7.8214 16.9587 8.20817 16.9587H16.9582C17.3449 16.9587 17.7159 16.805 17.9894 16.5315C18.2629 16.258 18.4165 15.8871 18.4165 15.5003C18.4165 15.1136 18.2629 14.7426 17.9894 14.4691C17.7159 14.1956 17.3449 14.042 16.9582 14.042ZM22.7915 8.20866H8.20817C7.8214 8.20866 7.45046 8.3623 7.17697 8.6358C6.90348 8.90929 6.74984 9.28022 6.74984 9.66699C6.74984 10.0538 6.90348 10.4247 7.17697 10.6982C7.45046 10.9717 7.8214 11.1253 8.20817 11.1253H22.7915C23.1783 11.1253 23.5492 10.9717 23.8227 10.6982C24.0962 10.4247 24.2498 10.0538 24.2498 9.66699C24.2498 9.28022 24.0962 8.90929 23.8227 8.6358C23.5492 8.3623 23.1783 8.20866 22.7915 8.20866ZM25.7082 0.916992H5.2915C4.13118 0.916992 3.01838 1.37793 2.19791 2.1984C1.37744 3.01887 0.916504 4.13167 0.916504 5.29199V19.8753C0.916504 21.0356 1.37744 22.1484 2.19791 22.9689C3.01838 23.7894 4.13118 24.2503 5.2915 24.2503H22.1936L27.5894 29.6607C27.7257 29.7959 27.8873 29.9028 28.065 29.9754C28.2427 30.048 28.4329 30.0848 28.6248 30.0837C28.8161 30.0886 29.0059 30.0486 29.179 29.967C29.4453 29.8576 29.6733 29.6718 29.8342 29.433C29.9951 29.1943 30.0817 28.9132 30.0832 28.6253V5.29199C30.0832 4.13167 29.6222 3.01887 28.8018 2.1984C27.9813 1.37793 26.8685 0.916992 25.7082 0.916992ZM27.1665 25.1107L23.8269 21.7566C23.6907 21.6214 23.5291 21.5145 23.3514 21.4419C23.1737 21.3693 22.9834 21.3326 22.7915 21.3337H5.2915C4.90473 21.3337 4.5338 21.18 4.26031 20.9065C3.98682 20.633 3.83317 20.2621 3.83317 19.8753V5.29199C3.83317 4.90522 3.98682 4.53429 4.26031 4.2608C4.5338 3.9873 4.90473 3.83366 5.2915 3.83366H25.7082C26.0949 3.83366 26.4659 3.9873 26.7394 4.2608C27.0129 4.53429 27.1665 4.90522 27.1665 5.29199V25.1107Z" fill="#F2F2F2"/>
</svg>
