<svg width="35" height="35" viewBox="0 0 35 35" fill="none" xmlns="http://www.w3.org/2000/svg">
<g opacity="0.5">
<path opacity="0.5" d="M29.0898 0.662109H6.21379C5.46297 0.662109 4.71949 0.809999 4.02582 1.09733C3.33214 1.38466 2.70185 1.8058 2.17094 2.33671C1.64003 2.86762 1.21888 3.49791 0.931552 4.19158C0.644223 4.88525 0.496338 5.62873 0.496338 6.37956V23.5381C0.496338 25.0544 1.09871 26.5087 2.17094 27.5809C3.24317 28.6531 4.69743 29.2555 6.21379 29.2555H10.3646L16.7235 34.6337C16.9826 34.8517 17.3102 34.9712 17.6487 34.9712C17.9872 34.9712 18.3148 34.8517 18.5738 34.6337L24.9451 29.2555H29.0898C30.6067 29.2555 32.0616 28.6533 33.1348 27.5813C34.208 26.5092 34.8118 25.055 34.8134 23.5381V6.37956C34.8118 4.86263 34.208 3.40839 33.1348 2.33633C32.0616 1.26428 30.6067 0.662108 29.0898 0.662109ZM31.9516 23.5381C31.9516 23.9136 31.8775 24.2854 31.7336 24.6323C31.5897 24.9792 31.3788 25.2942 31.113 25.5595C30.8472 25.8247 30.5316 26.035 30.1845 26.1781C29.8373 26.3213 29.4653 26.3945 29.0898 26.3937H24.9451C24.2671 26.3915 23.6107 26.6322 23.0948 27.0722L17.6487 31.6733L12.2026 27.0722C11.6862 26.6331 11.0301 26.3926 10.3523 26.3937H6.21379C5.45643 26.3937 4.73008 26.0928 4.19454 25.5573C3.65901 25.0218 3.35815 24.2954 3.35815 23.5381V6.37956C3.35734 6.00403 3.4306 5.63203 3.57375 5.28486C3.71689 4.93768 3.92711 4.62215 4.19236 4.35632C4.45761 4.0905 4.77269 3.87961 5.11956 3.73571C5.46642 3.59182 5.83826 3.51775 6.21379 3.51775H29.0898C29.8488 3.51775 30.5767 3.81926 31.1134 4.35596C31.6501 4.89265 31.9516 5.62056 31.9516 6.37956V23.5381Z" fill="#00E467"/>
<path opacity="0.5" d="M10.6422 10.6663H17.7906C17.986 10.6792 18.1819 10.6518 18.3663 10.5858C18.5507 10.5199 18.7196 10.4168 18.8625 10.283C19.0055 10.1491 19.1194 9.98738 19.1973 9.80772C19.2752 9.62807 19.3154 9.43433 19.3154 9.23851C19.3154 9.0427 19.2752 8.84897 19.1973 8.66931C19.1194 8.48966 19.0055 8.3279 18.8625 8.19405C18.7196 8.06021 18.5507 7.95712 18.3663 7.89118C18.1819 7.82525 17.986 7.79785 17.7906 7.8107H10.6422C10.4468 7.79785 10.2509 7.82525 10.0665 7.89118C9.88211 7.95712 9.71323 8.06021 9.57029 8.19405C9.42736 8.3279 9.31341 8.48966 9.23552 8.66931C9.15762 8.84897 9.11743 9.0427 9.11743 9.23851C9.11743 9.43433 9.15762 9.62807 9.23552 9.80772C9.31341 9.98738 9.42736 10.1491 9.57029 10.283C9.71323 10.4168 9.88211 10.5199 10.0665 10.5858C10.2509 10.6518 10.4468 10.6792 10.6422 10.6663Z" fill="#00E467"/>
<path opacity="0.5" d="M24.8033 13.5283H10.5066C10.1271 13.5283 9.76313 13.6791 9.49479 13.9474C9.22644 14.2158 9.07568 14.5797 9.07568 14.9592C9.07568 15.3387 9.22644 15.7027 9.49479 15.971C9.76313 16.2394 10.1271 16.3901 10.5066 16.3901H24.8033C25.1828 16.3901 25.5467 16.2394 25.8151 15.971C26.0834 15.7027 26.2342 15.3387 26.2342 14.9592C26.2342 14.5797 26.0834 14.2158 25.8151 13.9474C25.5467 13.6791 25.1828 13.5283 24.8033 13.5283Z" fill="#00E467"/>
<path opacity="0.5" d="M24.8033 19.2451H10.5066C10.1271 19.2451 9.76313 19.3959 9.49479 19.6642C9.22644 19.9326 9.07568 20.2965 9.07568 20.676C9.07568 21.0555 9.22644 21.4195 9.49479 21.6878C9.76313 21.9562 10.1271 22.1069 10.5066 22.1069H24.8033C25.1828 22.1069 25.5467 21.9562 25.8151 21.6878C26.0834 21.4195 26.2342 21.0555 26.2342 20.676C26.2342 20.2965 26.0834 19.9326 25.8151 19.6642C25.5467 19.3959 25.1828 19.2451 24.8033 19.2451Z" fill="#00E467"/>
</g>
</svg>
